<svg width="14" height="12" viewBox="0 0 14 12" fill="none" xmlns="http://www.w3.org/2000/svg">
  <path
    d="M0.29375 5.29373C-0.0968752 5.68435 -0.0968752 6.31873 0.29375 6.70935L5.29375 11.7094C5.68437 12.1 6.31875 12.1 6.70937 11.7094C7.1 11.3187 7.1 10.6844 6.70937 10.2937L3.4125 6.99998L13 6.99998C13.5531 6.99998 14 6.5531 14 5.99998C14 5.44685 13.5531 4.99998 13 4.99998L3.41562 4.99998L6.70625 1.70623C7.09688 1.3156 7.09688 0.681225 6.70625 0.2906C6.31563 -0.100025 5.68125 -0.100025 5.29062 0.2906L0.290625 5.2906L0.29375 5.29373Z"
    fill="#F04037" />
</svg>