<svg width="63" height="261" viewBox="0 0 63 261" fill="none" xmlns="http://www.w3.org/2000/svg">
  <path fill-rule="evenodd" clip-rule="evenodd"
    d="M7.17108 10.043C9.9324 10.067 12.1903 7.84798 12.2143 5.08666C12.2383 2.32534 10.0192 0.0674083 7.25793 0.0434252C4.49661 0.0194421 2.23868 2.23849 2.21469 4.99981C2.19071 7.76113 4.40976 10.0191 7.17108 10.043ZM6.73683 60.0412C9.49815 60.0651 11.7561 57.8461 11.7801 55.0848C11.804 52.3235 9.585 50.0655 6.82368 50.0415C4.06236 50.0176 1.80442 52.2366 1.78044 54.9979C1.75646 57.7592 3.97551 60.0172 6.73683 60.0412ZM11.3458 105.083C11.3218 107.844 9.06389 110.063 6.30257 110.039C3.54125 110.015 1.3222 107.757 1.34619 104.996C1.37017 102.235 3.6281 100.016 6.38942 100.04C9.15074 100.064 11.3698 102.322 11.3458 105.083ZM5.86832 160.037C8.62964 160.061 10.8876 157.842 10.9116 155.081C10.9355 152.32 8.71649 150.062 5.95517 150.038C3.19385 150.014 0.935918 152.233 0.911935 154.994C0.887952 157.755 3.107 160.013 5.86832 160.037ZM10.4773 205.079C10.4533 207.84 8.19539 210.059 5.43407 210.036C2.67275 210.012 0.4537 207.754 0.477683 204.992C0.501666 202.231 2.7596 200.012 5.52092 200.036C8.28224 200.06 10.5013 202.318 10.4773 205.079ZM4.99982 260.034C7.76114 260.058 10.0191 257.839 10.0431 255.077C10.067 252.316 7.84799 250.058 5.08667 250.034C2.32535 250.01 0.0674134 252.229 0.0434303 254.99C0.0194473 257.752 2.2385 260.01 4.99982 260.034ZM62.2124 5.52091C62.1884 8.28223 59.9305 10.5013 57.1692 10.4773C54.4079 10.4533 52.1888 8.19538 52.2128 5.43406C52.2368 2.67274 54.4947 0.453695 57.256 0.477678C60.0174 0.501661 62.2364 2.75959 62.2124 5.52091ZM56.7349 60.4754C59.4963 60.4994 61.7542 58.2803 61.7782 55.519C61.8022 52.7577 59.5831 50.4998 56.8218 50.4758C54.0605 50.4518 51.8025 52.6709 51.7786 55.4322C51.7546 58.1935 53.9736 60.4514 56.7349 60.4754ZM61.3439 105.517C61.3199 108.278 59.062 110.498 56.3007 110.474C53.5394 110.45 51.3203 108.192 51.3443 105.43C51.3683 102.669 53.6262 100.45 56.3875 100.474C59.1489 100.498 61.3679 102.756 61.3439 105.517ZM55.8664 160.472C58.6278 160.496 60.8857 158.277 60.9097 155.515C60.9337 152.754 58.7146 150.496 55.9533 150.472C53.192 150.448 50.934 152.667 50.91 155.428C50.8861 158.19 53.1051 160.448 55.8664 160.472ZM60.4754 205.513C60.4514 208.275 58.1935 210.494 55.4322 210.47C52.6709 210.446 50.4518 208.188 50.4758 205.427C50.4998 202.665 52.7577 200.446 55.519 200.47C58.2804 200.494 60.4994 202.752 60.4754 205.513ZM54.9979 260.468C57.7593 260.492 60.0172 258.273 60.0412 255.511C60.0651 252.75 57.8461 250.492 55.0848 250.468C52.3235 250.444 50.0655 252.663 50.0415 255.425C50.0176 258.186 52.2366 260.444 54.9979 260.468Z"
    fill="white" />
</svg>