<svg width="224" height="217" viewBox="0 0 224 217" fill="none" xmlns="http://www.w3.org/2000/svg">
  <path
    d="M68.0096 0.907252C68.7261 0.601218 69.4463 0.302432 70.1703 0.0109863H153.83C154.554 0.302432 155.274 0.601218 155.99 0.907252H68.0096Z"
    fill="white" />
  <path
    d="M51.1752 9.86991C51.6419 9.56776 52.111 9.269 52.5824 8.97364H171.418C171.889 9.269 172.358 9.56776 172.825 9.86991H51.1752Z"
    fill="white" />
  <path
    d="M40.2292 17.9363C39.8739 18.2329 39.5204 18.5317 39.1688 18.8326H184.831C184.48 18.5317 184.126 18.2329 183.771 17.9363H40.2292Z"
    fill="white" />
  <path
    d="M29.8383 27.7952C30.117 27.4949 30.3973 27.1962 30.6792 26.899H193.321C193.603 27.1962 193.883 27.4949 194.162 27.7952H29.8383Z"
    fill="white" />
  <path
    d="M23.0272 35.8616C22.7989 36.1592 22.5721 36.4579 22.3468 36.7579H88.2478C89.1932 36.4406 90.1471 36.1417 91.109 35.8616H23.0272Z"
    fill="white" />
  <path
    d="M132.891 35.8616C133.853 36.1417 134.807 36.4406 135.752 36.7579H201.653C201.428 36.4579 201.201 36.1592 200.973 35.8616H132.891Z"
    fill="white" />
  <path
    d="M71.5184 44.8243H16.8189C16.6334 45.1221 16.4492 45.4208 16.2663 45.7205H70.1657C70.6132 45.417 71.0641 45.1182 71.5184 44.8243Z"
    fill="white" />
  <path
    d="M153.834 45.7205C153.387 45.417 152.936 45.1182 152.482 44.8243H207.181C207.367 45.1221 207.551 45.4208 207.734 45.7205H153.834Z"
    fill="white" />
  <path
    d="M60.2217 53.7869H11.7906C11.641 54.0849 11.4927 54.3837 11.3456 54.6832H59.3074C59.6096 54.3818 59.9144 54.0831 60.2217 53.7869Z"
    fill="white" />
  <path
    d="M164.693 54.6832C164.39 54.3818 164.086 54.0831 163.778 53.7869H212.209C212.359 54.0849 212.507 54.3837 212.654 54.6832H164.693Z"
    fill="white" />
  <path
    d="M52.2938 62.7496H7.77499C7.65691 63.0477 7.54008 63.3465 7.42449 63.6458H51.6306C51.8495 63.3454 52.0706 63.0466 52.2938 62.7496Z"
    fill="white" />
  <path
    d="M172.369 63.6458C172.151 63.3454 171.929 63.0466 171.706 62.7496H216.225C216.343 63.0477 216.46 63.3465 216.576 63.6458H172.369Z"
    fill="white" />
  <path
    d="M46.5085 71.7122H4.66067C4.57111 72.0105 4.48276 72.3092 4.39563 72.6085H46.0247C46.184 72.3085 46.3453 72.0098 46.5085 71.7122Z"
    fill="white" />
  <path
    d="M177.975 72.6085C177.816 72.3085 177.655 72.0098 177.491 71.7122H219.339C219.429 72.0105 219.517 72.3092 219.604 72.6085H177.975Z"
    fill="white" />
  <path
    d="M42.3396 80.6749H2.37105C2.30793 80.9732 2.24599 81.272 2.18525 81.5711H41.9997C42.1112 81.2715 42.2244 80.9727 42.3396 80.6749Z"
    fill="white" />
  <path
    d="M182 81.5711C181.889 81.2715 181.776 80.9727 181.66 80.6749H221.629C221.692 80.9732 221.754 81.272 221.815 81.5711H182Z"
    fill="white" />
  <path
    d="M39.5129 89.6375H0.853098C0.814966 89.9359 0.778007 90.2347 0.742227 90.5338H39.2974C39.3674 90.2344 39.4393 89.9356 39.5129 89.6375Z"
    fill="white" />
  <path
    d="M184.703 90.5338C184.633 90.2344 184.561 89.9356 184.487 89.6375H223.147C223.185 89.9359 223.222 90.2347 223.258 90.5338H184.703Z"
    fill="white" />
  <path
    d="M37.8736 98.6002H0.0705343C0.0564271 98.8986 0.0434879 99.1974 0.0317212 99.4965H37.7711C37.8035 99.1972 37.8377 98.8984 37.8736 98.6002Z"
    fill="white" />
  <path
    d="M186.229 99.4965C186.196 99.1972 186.162 98.8984 186.126 98.6002H223.929C223.944 98.8986 223.957 99.1974 223.968 99.4965H186.229Z"
    fill="white" />
  <path
    d="M37.3334 107.563H0C0.00940298 107.862 0.0199782 108.161 0.0317212 108.459H37.3378C37.3348 108.186 37.3333 107.912 37.3333 107.637C37.3333 107.612 37.3333 107.588 37.3334 107.563Z"
    fill="white" />
  <path
    d="M186.662 108.459C186.665 108.186 186.667 107.912 186.667 107.637C186.667 107.612 186.667 107.588 186.667 107.563H224C223.997 107.654 223.994 107.745 223.991 107.836C223.984 108.044 223.976 108.252 223.968 108.459H186.662Z"
    fill="white" />
  <path
    d="M37.8558 116.526H0.638672C0.672014 116.825 0.706534 117.123 0.742227 117.422H37.9674C37.9284 117.124 37.8913 116.825 37.8558 116.526Z"
    fill="white" />
  <path
    d="M186.033 117.422C186.072 117.124 186.109 116.825 186.144 116.526H223.361C223.328 116.825 223.293 117.123 223.258 117.422H186.033Z"
    fill="white" />
  <path
    d="M39.4763 125.488H2.0071C2.06529 125.787 2.12468 126.086 2.18525 126.384H39.7016C39.6247 126.086 39.5496 125.788 39.4763 125.488Z"
    fill="white" />
  <path
    d="M184.298 126.384C184.375 126.086 184.45 125.788 184.524 125.488H221.993C221.935 125.787 221.875 126.086 221.815 126.384H184.298Z"
    fill="white" />
  <path
    d="M42.2822 134.451H4.13875C4.22317 134.75 4.30879 135.049 4.39563 135.347H42.6331C42.5143 135.049 42.3973 134.751 42.2822 134.451Z"
    fill="white" />
  <path
    d="M181.367 135.347C181.486 135.049 181.603 134.751 181.718 134.451H219.861C219.777 134.75 219.691 135.049 219.604 135.347H181.367Z"
    fill="white" />
  <path
    d="M46.4271 143.413H7.08289C7.19551 143.713 7.30938 144.012 7.42449 144.31H46.9241C46.7565 144.012 46.5908 143.713 46.4271 143.413Z"
    fill="white" />
  <path
    d="M177.076 144.31C177.244 144.012 177.409 143.713 177.573 143.413H216.917C216.804 143.713 216.691 144.012 216.576 144.31H177.076Z"
    fill="white" />
  <path
    d="M52.1822 152.376H10.9106C11.0543 152.676 11.1993 152.974 11.3456 153.272H52.8628C52.6338 152.975 52.4069 152.677 52.1822 152.376Z"
    fill="white" />
  <path
    d="M171.137 153.272C171.366 152.975 171.593 152.677 171.818 152.376H213.089C212.946 152.676 212.801 152.974 212.654 153.272H171.137Z"
    fill="white" />
  <path
    d="M60.0677 161.339H15.7253C15.9043 161.638 16.0846 161.937 16.2663 162.235H61.0086C60.6924 161.939 60.3787 161.64 60.0677 161.339Z"
    fill="white" />
  <path
    d="M162.991 162.235C163.308 161.939 163.621 161.64 163.932 161.339H208.275C208.096 161.638 207.915 161.937 207.734 162.235H162.991Z"
    fill="white" />
  <path
    d="M71.2892 170.301H21.6804C21.901 170.601 22.1232 170.9 22.3468 171.198H72.6974C72.2245 170.904 71.7551 170.605 71.2892 170.301Z"
    fill="white" />
  <path
    d="M151.303 171.198C151.776 170.904 152.245 170.605 152.711 170.301H202.32C202.099 170.601 201.877 170.9 201.653 171.198H151.303Z"
    fill="white" />
  <path
    d="M90.6044 179.264H29.0155C29.2882 179.564 29.5624 179.863 29.8383 180.16H93.8745C92.7746 179.886 91.6844 179.587 90.6044 179.264Z"
    fill="white" />
  <path
    d="M130.126 180.16C131.225 179.886 132.316 179.587 133.396 179.264H194.985C194.712 179.564 194.438 179.863 194.162 180.16H130.126Z"
    fill="white" />
  <path
    d="M39.1688 189.123C38.8222 188.826 38.4773 188.528 38.1344 188.227H185.866C185.523 188.528 185.178 188.826 184.831 189.123H39.1688Z"
    fill="white" />
  <path
    d="M49.8126 197.189C50.2645 197.491 50.7187 197.79 51.1752 198.086H172.825C173.281 197.79 173.736 197.491 174.187 197.189H49.8126Z"
    fill="white" />
  <path
    d="M68.0096 207.048C67.3257 206.756 66.6452 206.457 65.9683 206.152H158.032C157.355 206.457 156.674 206.756 155.99 207.048H68.0096Z"
    fill="white" />
  <path
    d="M112 216.011C116.824 216.011 121.578 215.706 126.242 215.115H97.7584C102.422 215.706 107.176 216.011 112 216.011Z"
    fill="white" />
</svg>