<svg width="42" height="69" viewBox="0 0 42 69" fill="none" xmlns="http://www.w3.org/2000/svg">
  <mask id="path-1-inside-1_13_301" fill="white">
    <path
      d="M22.6765 68.3392C30.1639 62.2897 36.1622 53.2994 39.352 43.3461C42.5417 33.3927 42.6615 23.2916 39.6851 15.2648C36.7086 7.23811 30.8798 1.94327 23.4807 0.545114C16.0817 -0.853038 7.71857 1.76004 0.231184 7.80949L11.4538 38.0743L22.6765 68.3392Z" />
  </mask>
  <path
    d="M22.6765 68.3392C30.1639 62.2897 36.1622 53.2994 39.352 43.3461C42.5417 33.3927 42.6615 23.2916 39.6851 15.2648C36.7086 7.23811 30.8798 1.94327 23.4807 0.545114C16.0817 -0.853038 7.71857 1.76004 0.231184 7.80949L11.4538 38.0743L22.6765 68.3392Z"
    stroke="white" stroke-width="10" mask="url(#path-1-inside-1_13_301)" />
</svg>