<svg width="193" height="186" viewBox="0 0 193 186" fill="none" xmlns="http://www.w3.org/2000/svg">
  <path
    d="M58.5976 0.771784C59.2149 0.508255 59.8354 0.250967 60.4592 0H132.541C133.165 0.250967 133.785 0.508255 134.402 0.771784H58.5976Z"
    fill="white" />
  <path
    d="M44.0929 8.48963C44.495 8.22945 44.8992 7.97218 45.3054 7.71784H147.695C148.101 7.97218 148.505 8.22945 148.907 8.48963H44.0929Z"
    fill="white" />
  <path
    d="M33.7482 16.2075C34.0511 15.9484 34.3556 15.6911 34.6618 15.4357H158.338C158.644 15.6911 158.949 15.9484 159.252 16.2075H33.7482Z"
    fill="white" />
  <path
    d="M25.7089 23.9253C25.949 23.6667 26.1905 23.4095 26.4334 23.1535H166.567C166.809 23.4095 167.051 23.6667 167.291 23.9253H25.7089Z"
    fill="white" />
  <path
    d="M19.2541 31.6432C19.4483 31.3849 19.6437 31.1276 19.8404 30.8714H173.16C173.356 31.1276 173.552 31.3849 173.746 31.6432H19.2541Z"
    fill="white" />
  <path
    d="M14.0152 39.361C14.1727 39.1029 14.3314 38.8457 14.4913 38.5892H178.509C178.669 38.8457 178.827 39.1029 178.985 39.361H14.0152Z"
    fill="white" />
  <path
    d="M9.77548 47.0788C9.90215 46.8209 10.0299 46.5637 10.1588 46.3071H182.841C182.97 46.5637 183.098 46.8209 183.225 47.0788H9.77548Z"
    fill="white" />
  <path
    d="M6.39699 54.7967C6.49658 54.5389 6.59725 54.2816 6.69899 54.0249H186.301C186.403 54.2816 186.503 54.5389 186.603 54.7967H6.39699Z"
    fill="white" />
  <path
    d="M3.7873 62.5145C3.86238 62.2568 3.9385 61.9995 4.01566 61.7427H188.984C189.061 61.9995 189.138 62.2568 189.213 62.5145H3.7873Z"
    fill="white" />
  <path
    d="M1.88282 70.2324C1.93516 69.9747 1.98853 69.7175 2.04292 69.4606H190.957C191.011 69.7175 191.065 69.9747 191.117 70.2324H1.88282Z"
    fill="white" />
  <path
    d="M0.639508 77.9502C0.670336 77.6926 0.70218 77.4354 0.735035 77.1784H192.265C192.298 77.4354 192.33 77.6926 192.36 77.9502H0.639508Z"
    fill="white" />
  <path
    d="M0.0273312 85.6681C0.0374695 85.4105 0.048618 85.1533 0.0607728 84.8963H192.939C192.951 85.1533 192.963 85.4105 192.973 85.6681H0.0273312Z"
    fill="white" />
  <path
    d="M0.0273312 93.3859C0.0172134 93.1289 0.00810168 92.8716 0 92.6141H193C192.992 92.8716 192.983 93.1289 192.973 93.3859H0.0273312Z"
    fill="white" />
  <path
    d="M0.639508 101.104C0.608755 100.847 0.579012 100.59 0.550284 100.332H192.45C192.421 100.59 192.391 100.847 192.36 101.104H0.639508Z"
    fill="white" />
  <path
    d="M1.88282 108.822C1.83064 108.565 1.77947 108.307 1.72933 108.05H191.271C191.221 108.307 191.169 108.565 191.117 108.822H1.88282Z"
    fill="white" />
  <path
    d="M3.7873 116.539C3.71249 116.283 3.63871 116.025 3.56598 115.768H189.434C189.361 116.025 189.288 116.283 189.213 116.539H3.7873Z"
    fill="white" />
  <path
    d="M6.39699 124.257C6.29781 124.001 6.1997 123.743 6.10266 123.485H186.897C186.8 123.743 186.702 124.001 186.603 124.257H6.39699Z"
    fill="white" />
  <path
    d="M9.77548 131.975C9.64944 131.718 9.5245 131.461 9.40068 131.203H183.599C183.475 131.461 183.351 131.718 183.225 131.975H9.77548Z"
    fill="white" />
  <path
    d="M14.0152 139.693C13.8586 139.436 13.7032 139.179 13.549 138.921H179.451C179.297 139.179 179.141 139.436 178.985 139.693H14.0152Z"
    fill="white" />
  <path
    d="M19.2541 147.411C19.0615 147.155 18.8701 146.897 18.6799 146.639H174.32C174.13 146.897 173.939 147.155 173.746 147.411H19.2541Z"
    fill="white" />
  <path
    d="M25.7089 155.129C25.4712 154.873 25.2349 154.615 25 154.357H168C167.765 154.615 167.529 154.873 167.291 155.129H25.7089Z"
    fill="white" />
  <path
    d="M33.7481 162.846C33.4495 162.591 33.1524 162.334 32.8568 162.075H160.143C159.848 162.334 159.551 162.591 159.252 162.846H33.7481Z"
    fill="white" />
  <path
    d="M44.0929 170.564C43.6996 170.31 43.3082 170.053 42.9189 169.793H150.081C149.692 170.053 149.3 170.31 148.907 170.564H44.0929Z"
    fill="white" />
  <path
    d="M58.5976 178.282C58.0083 178.031 57.422 177.773 56.8387 177.51H136.161C135.578 177.773 134.992 178.031 134.402 178.282H58.5976Z"
    fill="white" />
  <path
    d="M108.771 185.228C104.752 185.738 100.657 186 96.5 186C92.3432 186 88.2477 185.738 84.2293 185.228H108.771Z"
    fill="white" />
</svg>