<svg width="142" height="141" viewBox="0 0 142 141" fill="none" xmlns="http://www.w3.org/2000/svg">
  <path
    d="M33.5068 5.99172L35.1369 2.33057L36.0504 2.73731L36.5699 1.57047L37.8402 1.70398L37.9447 0.709453L41.9304 1.12837L41.8259 2.12289L45.8116 2.5418L45.9161 1.54728L49.9018 1.96619L49.7972 2.96071L53.7829 3.37962L53.8874 2.3851L57.8731 2.80401L57.7686 3.79853L61.7543 4.21745L61.8588 3.22292L65.8445 3.64183L65.7399 4.63636L69.7256 5.05527L69.8301 4.06074L73.8158 4.47965L73.7113 5.47418L77.6969 5.89309L77.8015 4.89857L81.7871 5.31748L81.6826 6.312L85.6683 6.73091L85.7728 5.73639L89.7585 6.1553L89.654 7.14982L93.6396 7.56873L93.7442 6.57421L97.7298 6.99312L97.6253 7.98764L101.611 8.40655L101.716 7.41203L105.701 7.83094L105.597 8.82546L109.582 9.24438L109.687 8.24985L113.673 8.66876L113.568 9.66328L117.554 10.0822L117.658 9.08767L121.644 9.50659L121.539 10.5011L122.81 10.6346L123.075 11.884L124.053 11.6761L124.887 15.5961L123.908 15.804L124.742 19.7241L125.72 19.5162L126.553 23.4362L125.575 23.6441L126.408 27.5642L127.386 27.3563L128.219 31.2763L127.241 31.4842L128.075 35.4043L129.053 35.1964L129.886 39.1164L128.908 39.3243L129.741 43.2444L130.719 43.0365L131.552 46.9565L130.574 47.1644L131.407 51.0845L132.386 50.8766L133.219 54.7966L132.241 55.0045L133.074 58.9246L134.052 58.7167L134.885 62.6367L133.907 62.8446L134.74 66.7647L135.719 66.5568L136.552 70.4768L135.574 70.6847L136.407 74.6048L137.385 74.3969L138.218 78.3169L137.24 78.5248L138.073 82.4449L139.051 82.237L139.885 86.157L138.907 86.3649L139.74 90.285L140.718 90.0771L141.551 93.9971L140.573 94.205L140.839 95.4544L139.732 96.093L140.232 96.9591L136.762 98.9629L136.262 98.0968L132.791 100.101L133.291 100.967L129.82 102.97L129.32 102.104L125.85 104.108L126.35 104.974L122.879 106.978L122.379 106.112L118.908 108.116L119.408 108.982L115.938 110.986L115.438 110.12L111.967 112.124L112.467 112.99L108.996 114.993L108.496 114.127L105.025 116.131L105.525 116.997L102.055 119.001L101.555 118.135L98.084 120.139L98.584 121.005L95.1133 123.009L94.6133 122.143L91.1426 124.146L91.6426 125.012L88.1719 127.016L87.6719 126.15L84.2012 128.154L84.7012 129.02L81.2304 131.024L80.7304 130.158L77.2597 132.162L77.7597 133.028L74.289 135.032L73.789 134.165L70.3183 136.169L70.8183 137.035L67.3476 139.039L66.8476 138.173L65.7415 138.812L64.7923 137.957L64.1232 138.7L61.1449 136.019L61.814 135.275L58.8358 132.594L58.1666 133.337L55.1884 130.655L55.8575 129.912L52.8793 127.231L52.2102 127.974L49.2319 125.292L49.901 124.549L46.9228 121.867L46.2537 122.61L43.2754 119.929L43.9445 119.186L40.9663 116.504L40.2972 117.247L37.3189 114.566L37.988 113.822L35.0098 111.141L34.3407 111.884L31.3624 109.202L32.0316 108.459L29.0533 105.778L28.3842 106.521L25.4059 103.839L26.0751 103.096L23.0968 100.414L22.4277 101.157L19.4494 98.4758L20.1186 97.7327L17.1403 95.0511L16.4712 95.7942L13.4929 93.1126L14.1621 92.3694L11.1838 89.6878L10.5147 90.431L7.53645 87.7493L8.20558 87.0062L5.22734 84.3246L4.55821 85.0677L1.57996 82.3861L2.24909 81.6429L1.29989 80.7883L1.8194 79.6214L0.905855 79.2147L2.5359 75.5536L3.44945 75.9603L5.0795 72.2991L4.16596 71.8924L5.796 68.2313L6.70955 68.638L8.3396 64.9768L7.42605 64.5701L9.0561 60.909L9.96965 61.3157L11.5997 57.6545L10.6862 57.2478L12.3162 53.5867L13.2297 53.9934L14.8598 50.3322L13.9463 49.9255L15.5763 46.2644L16.4898 46.6711L18.1199 43.0099L17.2063 42.6032L18.8364 38.9421L19.7499 39.3488L21.38 35.6876L20.4664 35.2809L22.0965 31.6198L23.01 32.0265L24.6401 28.3654L23.7265 27.9586L25.3566 24.2975L26.2701 24.7042L27.9002 21.0431L26.9866 20.6363L28.6167 16.9752L29.5302 17.3819L31.1603 13.7208L30.2467 13.314L31.8768 9.65287L32.7903 10.0596L34.4204 6.39846L33.5068 5.99172Z"
    stroke="white" stroke-width="2" stroke-dasharray="4 4" />
</svg>