<svg width="47" height="83" viewBox="0 0 47 83" fill="none" xmlns="http://www.w3.org/2000/svg">
  <path
    d="M0.5 65.9855C0.5 65.7093 0.276142 65.4855 0 65.4855V63.4306C0.276142 63.4306 0.5 63.2067 0.5 62.9306L0.5 59.8758C0.5 59.5996 0.276142 59.3758 0 59.3758V57.3209C0.276143 57.3209 0.5 57.097 0.5 56.8209V55.2935C0.5 54.9376 0.59398 54.6206 0.751286 54.3536C0.882181 54.1313 0.821669 53.8493 0.619253 53.6988C0.960719 53.3306 1.41479 53.0775 1.90724 52.9807C1.92871 53.232 2.13666 53.4318 2.39447 53.4374C2.70412 53.4442 3.02279 53.5312 3.32494 53.7189L4.88098 54.6852C5.11557 54.8309 5.42384 54.7588 5.56952 54.5242L7.8321 55.9293C7.68642 56.1639 7.75849 56.4722 7.99308 56.6178L11.1052 58.5505C11.3398 58.6962 11.648 58.6241 11.7937 58.3895L14.0563 59.7946C13.9106 60.0292 13.9827 60.3374 14.2173 60.4831L17.3294 62.4158C17.5639 62.5614 17.8722 62.4894 18.0179 62.2548L20.2805 63.6599C20.1348 63.8945 20.2069 64.2027 20.4415 64.3484L21.9975 65.3147C22.9178 65.8862 24.0822 65.8862 25.0025 65.3147L26.5585 64.3484C26.7931 64.2027 26.8652 63.8945 26.7195 63.6599L28.9821 62.2548C29.1278 62.4894 29.436 62.5614 29.6706 62.4158L32.7827 60.4831C33.0173 60.3374 33.0894 60.0292 32.9437 59.7946L35.2063 58.3895C35.352 58.6241 35.6602 58.6962 35.8948 58.5505L39.0069 56.6178C39.2415 56.4722 39.3136 56.1639 39.1679 55.9293L41.4305 54.5242C41.5762 54.7588 41.8844 54.8309 42.119 54.6852L43.6751 53.7189C43.9772 53.5312 44.2959 53.4442 44.6055 53.4374C44.8633 53.4318 45.0713 53.2319 45.0928 52.9807C45.5852 53.0775 46.0393 53.3306 46.3807 53.6988C46.1783 53.8493 46.1178 54.1313 46.2487 54.3535C46.406 54.6206 46.5 54.9376 46.5 55.2935V56.8209C46.5 57.097 46.7239 57.3209 47 57.3209V59.3757C46.7239 59.3757 46.5 59.5996 46.5 59.8757V62.9306C46.5 63.2067 46.7239 63.4306 47 63.4306V65.4855C46.7239 65.4855 46.5 65.7093 46.5 65.9855V67.5129C46.5 68.1542 46.1689 68.7497 45.6249 69.0875L43.8624 70.182C43.6278 70.3277 43.5558 70.636 43.7015 70.8706L41.026 72.5321C40.8803 72.2975 40.572 72.2254 40.3374 72.3711L36.8124 74.5601C36.5778 74.7058 36.5058 75.0141 36.6515 75.2487L33.976 76.9102C33.8303 76.6756 33.522 76.6035 33.2874 76.7492L29.7624 78.9383C29.5278 79.0839 29.4558 79.3922 29.6015 79.6268L26.926 81.2883C26.7803 81.0537 26.472 80.9816 26.2374 81.1273L24.4749 82.2218C23.8777 82.5927 23.1223 82.5927 22.5251 82.2218L20.7626 81.1273C20.528 80.9816 20.2197 81.0537 20.074 81.2883L17.3985 79.6268C17.5442 79.3922 17.4722 79.0839 17.2376 78.9383L13.7126 76.7492C13.478 76.6035 13.1697 76.6756 13.024 76.9102L10.3485 75.2487C10.4942 75.0141 10.4222 74.7058 10.1876 74.5601L6.66256 72.3711C6.42798 72.2254 6.11971 72.2975 5.97403 72.5321L3.29854 70.8706C3.44422 70.636 3.37215 70.3277 3.13756 70.182L1.37506 69.0875C0.831136 68.7497 0.5 68.1542 0.5 67.5129V65.9855ZM3.32494 0.781893L3.58872 0.357134L3.32494 0.781893L4.88098 1.74821C5.11557 1.8939 5.42384 1.82182 5.56952 1.58723L7.8321 2.99232C7.68642 3.22691 7.75849 3.53518 7.99308 3.68086L11.1052 5.6135C11.3398 5.75918 11.648 5.68711 11.7937 5.45252L14.0563 6.8576C13.9106 7.09219 13.9827 7.40046 14.2173 7.54614L17.3294 9.47878C17.5639 9.62447 17.8722 9.55239 18.0179 9.3178L20.2805 10.7229C20.1348 10.9575 20.2069 11.2657 20.4415 11.4114L21.9975 12.3777C22.9178 12.9493 24.0822 12.9493 25.0025 12.3777L26.5585 11.4114C26.7931 11.2657 26.8652 10.9575 26.7195 10.7229L28.9821 9.3178C29.1278 9.55239 29.436 9.62446 29.6706 9.47878L32.7827 7.54614C33.0173 7.40046 33.0894 7.09219 32.9437 6.8576L35.2063 5.45252C35.352 5.68711 35.6602 5.75918 35.8948 5.6135L39.0069 3.68086C39.2415 3.53518 39.3136 3.22691 39.1679 2.99232L41.4305 1.58723C41.5762 1.82182 41.8844 1.8939 42.119 1.74821L43.6751 0.781894C43.9772 0.594259 44.2959 0.507214 44.6055 0.500431C44.8633 0.494784 45.0713 0.294968 45.0928 0.0437283C45.5852 0.140478 46.0393 0.39364 46.3807 0.761853C46.1783 0.912305 46.1178 1.19434 46.2487 1.41657C46.406 1.68364 46.5 2.00063 46.5 2.35649V3.88392C46.5 4.16006 46.7239 4.38392 47 4.38392V6.43877C46.7239 6.43877 46.5 6.66263 46.5 6.93877V9.99362C46.5 10.2698 46.7239 10.4936 47 10.4936V12.5485C46.7239 12.5485 46.5 12.7723 46.5 13.0485V14.5759C46.5 15.2172 46.1689 15.8127 45.6249 16.1505L43.8624 17.245C43.6278 17.3907 43.5558 17.699 43.7015 17.9336L41.026 19.5951C40.8803 19.3605 40.572 19.2884 40.3374 19.4341L36.8124 21.6232C36.5778 21.7688 36.5058 22.0771 36.6515 22.3117L33.976 23.9732C33.8303 23.7386 33.522 23.6665 33.2874 23.8122L29.7624 26.0013C29.5278 26.147 29.4558 26.4552 29.6015 26.6898L26.926 28.3513C26.7803 28.1167 26.472 28.0447 26.2374 28.1903L24.4749 29.2849C23.8777 29.6557 23.1223 29.6557 22.5251 29.2849L20.7626 28.1903C20.528 28.0447 20.2197 28.1167 20.074 28.3513L17.3985 26.6898C17.5442 26.4552 17.4722 26.147 17.2376 26.0013L13.7126 23.8122C13.478 23.6665 13.1697 23.7386 13.024 23.9732L10.3485 22.3117C10.4942 22.0771 10.4222 21.7688 10.1876 21.6232L6.66256 19.4341C6.42798 19.2884 6.11971 19.3605 5.97402 19.5951L3.29854 17.9336C3.44422 17.699 3.37215 17.3907 3.13756 17.245L1.37506 16.1505C0.831137 15.8127 0.500001 15.2172 0.500001 14.5759V13.0485C0.500001 12.7723 0.276143 12.5485 0 12.5485V10.4936C0.276143 10.4936 0.500001 10.2698 0.500001 9.99363L0.500001 6.93877C0.500001 6.66263 0.276143 6.43877 0 6.43877V4.38392C0.276143 4.38392 0.500001 4.16006 0.500001 3.88392V2.3565C0.500001 2.00063 0.593981 1.68364 0.751287 1.41657C0.882182 1.19434 0.821669 0.912304 0.61925 0.761853C0.960713 0.393643 1.41479 0.140479 1.90724 0.043729C1.92871 0.294968 2.13666 0.494785 2.39447 0.500431C2.70412 0.507214 3.02279 0.594258 3.32494 0.781893ZM0.5 39.517C0.5 39.2408 0.276143 39.017 0 39.017V36.9621C0.276143 36.9621 0.5 36.7383 0.5 36.4621L0.5 33.4073C0.5 33.1311 0.276143 32.9073 0 32.9073V30.8524C0.276143 30.8524 0.5 30.6286 0.5 30.3524L0.5 28.825C0.5 28.4691 0.593981 28.1521 0.751287 27.8851C0.882181 27.6628 0.821669 27.3808 0.619253 27.2303C0.96072 26.8621 1.41479 26.609 1.90724 26.5122C1.92871 26.7635 2.13666 26.9633 2.39447 26.9689C2.70412 26.9757 3.02279 27.0627 3.32494 27.2504L4.88098 28.2167C5.11557 28.3624 5.42384 28.2903 5.56952 28.0557L7.8321 29.4608C7.68642 29.6954 7.75849 30.0037 7.99308 30.1493L11.1052 32.082C11.3398 32.2277 11.648 32.1556 11.7937 31.921L14.0563 33.3261C13.9106 33.5607 13.9827 33.8689 14.2173 34.0146L17.3294 35.9473C17.5639 36.093 17.8722 36.0209 18.0179 35.7863L20.2805 37.1914C20.1348 37.426 20.2069 37.7342 20.4415 37.8799L21.9975 38.8462C22.9178 39.4178 24.0822 39.4178 25.0025 38.8462L26.5585 37.8799C26.7931 37.7342 26.8652 37.426 26.7195 37.1914L28.9821 35.7863C29.1278 36.0209 29.436 36.093 29.6706 35.9473L32.7827 34.0146C33.0173 33.8689 33.0894 33.5607 32.9437 33.3261L35.2063 31.921C35.352 32.1556 35.6602 32.2277 35.8948 32.082L39.0069 30.1493C39.2415 30.0037 39.3136 29.6954 39.1679 29.4608L41.4305 28.0557C41.5762 28.2903 41.8844 28.3624 42.119 28.2167L43.6751 27.2504C43.9772 27.0627 44.2959 26.9757 44.6055 26.9689C44.8633 26.9633 45.0713 26.7635 45.0928 26.5122C45.5852 26.609 46.0393 26.8621 46.3807 27.2303C46.1783 27.3808 46.1178 27.6628 46.2487 27.8851C46.406 28.1521 46.5 28.4691 46.5 28.825V30.3524C46.5 30.6285 46.7239 30.8524 47 30.8524V32.9073C46.7239 32.9073 46.5 33.1311 46.5 33.4073V36.4621C46.5 36.7383 46.7239 36.9621 47 36.9621V39.017C46.7239 39.017 46.5 39.2408 46.5 39.517V41.0444C46.5 41.6857 46.1689 42.2812 45.6249 42.619L43.8624 43.7135C43.6278 43.8592 43.5558 44.1675 43.7015 44.4021L41.026 46.0636C40.8803 45.829 40.572 45.7569 40.3374 45.9026L36.8124 48.0916C36.5778 48.2373 36.5058 48.5456 36.6515 48.7802L33.976 50.4417C33.8303 50.2071 33.522 50.135 33.2874 50.2807L29.7624 52.4698C29.5278 52.6154 29.4558 52.9237 29.6015 53.1583L26.926 54.8198C26.7803 54.5852 26.472 54.5131 26.2374 54.6588L24.4749 55.7534C23.8777 56.1242 23.1223 56.1242 22.5251 55.7534L20.7626 54.6588C20.528 54.5131 20.2197 54.5852 20.074 54.8198L17.3985 53.1583C17.5442 52.9237 17.4722 52.6154 17.2376 52.4698L13.7126 50.2807C13.478 50.135 13.1697 50.2071 13.024 50.4417L10.3485 48.7802C10.4942 48.5456 10.4222 48.2373 10.1876 48.0916L6.66256 45.9026C6.42798 45.7569 6.11971 45.829 5.97403 46.0636L3.29854 44.4021C3.44423 44.1675 3.37215 43.8592 3.13756 43.7135L1.37506 42.619C0.831135 42.2812 0.5 41.6857 0.5 41.0444L0.5 39.517Z"
    stroke="white" stroke-linecap="round" stroke-dasharray="4 4" />
</svg>