<svg width="138" height="53" viewBox="0 0 138 53" fill="none" xmlns="http://www.w3.org/2000/svg">
  <path
    d="M1.776 16.9298C2.93688 17.1262 4.03827 16.3512 4.23738 15.1985L4.23759 15.1973L4.2396 15.1864C4.24233 15.1716 4.24727 15.1454 4.25459 15.1087C4.26925 15.0351 4.29339 14.9194 4.32847 14.7676C4.39874 14.4635 4.51218 14.0175 4.67992 13.4775C5.01781 12.3896 5.56361 10.9605 6.39405 9.5506C8.05358 6.733 10.6682 4.23996 14.9376 4.23996C19.3815 4.23996 22.8173 6.8671 26.9438 10.1372L27.1637 10.3116C29.3215 12.0226 31.693 13.9031 34.4277 15.2261C36.5744 16.2647 38.9448 16.9598 41.6113 16.9598C44.266 16.9598 46.6273 16.2708 48.7665 15.2398C51.5131 13.9161 53.8936 12.0285 56.0588 10.3116L56.2788 10.1372C60.4052 6.8671 63.841 4.23996 68.285 4.23996C72.7289 4.23996 76.1647 6.8671 80.2911 10.1372L80.5111 10.3116C82.6967 12.0447 85.1018 13.9518 87.8814 15.2772C90 16.2875 92.3361 16.9598 94.9586 16.9598C97.5694 16.9598 99.8964 16.2935 102.007 15.2908C104.799 13.9648 107.213 12.0506 109.406 10.3116L109.626 10.1372C113.753 6.8671 117.188 4.23996 121.632 4.23996C125.935 4.23996 128.761 6.77079 130.627 9.63235C131.555 11.0564 132.195 12.4968 132.604 13.5899C132.806 14.1331 132.949 14.5816 133.039 14.8876C133.084 15.0404 133.115 15.157 133.135 15.2313C133.145 15.2685 133.151 15.295 133.155 15.3101L133.158 15.3205L133.158 15.3228L133.158 15.3237L133.158 15.3245C133.427 16.4625 134.573 17.1698 135.72 16.9046C136.868 16.6392 137.581 15.4995 137.314 14.3592L135.236 14.8399C137.314 14.3592 137.314 14.3584 137.314 14.3575L137.313 14.3554L137.312 14.3505L137.309 14.3371L137.299 14.2966C137.291 14.2636 137.279 14.2187 137.265 14.1627C137.235 14.0507 137.193 13.894 137.135 13.699C137.021 13.3094 136.847 12.7642 136.605 12.1148C136.122 10.823 135.353 9.0834 134.209 7.3275C131.928 3.82912 127.953 0 121.632 0C115.569 0 111.036 3.5942 107.185 6.64825L106.965 6.82263C102.838 10.0927 99.4025 12.7199 94.9586 12.7199C90.5147 12.7199 87.0789 10.0927 82.9525 6.82263L82.7325 6.64825C78.881 3.5942 74.3482 0 68.285 0C62.2217 0 57.6889 3.59419 53.8374 6.64824L53.6174 6.82263C49.491 10.0927 46.0552 12.7199 41.6113 12.7199C37.1674 12.7199 33.7315 10.0927 29.6051 6.82263L29.3851 6.64824C25.5336 3.59419 21.0009 0 14.9376 0C8.58398 0 4.79693 3.8669 2.71053 7.40925C1.668 9.17929 1.00477 10.9302 0.601879 12.2273C0.399227 12.8797 0.259338 13.4275 0.168874 13.819C0.123584 14.015 0.090513 14.1726 0.0680405 14.2853C0.0567997 14.3418 0.0481968 14.387 0.0420311 14.4204L0.0345807 14.4614L0.0321763 14.475L0.031296 14.4801L0.0309352 14.4822C0.0307767 14.4831 0.030627 14.484 2.13424 14.8399L0.0306269 14.484C-0.167221 15.6382 0.61421 16.7332 1.776 16.9298Z"
    fill="white" />
  <path
    d="M4.23738 33.2183C4.03827 34.371 2.93688 35.146 1.776 34.9496C0.61421 34.753 -0.167221 33.658 0.0306269 32.5038L2.13424 32.8597C0.030627 32.5038 0.0307767 32.5029 0.0309352 32.502L0.031296 32.4999L0.0321763 32.4949L0.0345807 32.4812L0.0420311 32.4402C0.0481968 32.4069 0.0567997 32.3616 0.0680405 32.3052C0.090513 32.1924 0.123584 32.0348 0.168874 31.8388C0.259338 31.4473 0.399227 30.8996 0.601879 30.2471C1.00477 28.95 1.668 27.1991 2.71053 25.4291C4.79693 21.8867 8.58398 18.0198 14.9376 18.0198C21.0009 18.0198 25.5336 21.614 29.3851 24.6681L29.6051 24.8425C33.7315 28.1126 37.1674 30.7397 41.6113 30.7397C46.0552 30.7397 49.491 28.1126 53.6174 24.8425L53.8374 24.6681C57.6889 21.614 62.2217 18.0198 68.285 18.0198C74.3482 18.0198 78.881 21.614 82.7325 24.6681L82.9525 24.8425C87.0789 28.1126 90.5147 30.7397 94.9586 30.7397C99.4025 30.7397 102.838 28.1126 106.965 24.8425L107.185 24.6681C111.036 21.614 115.569 18.0198 121.632 18.0198C127.953 18.0198 131.928 21.849 134.209 25.3473C135.353 27.1032 136.122 28.8428 136.605 30.1347C136.847 30.784 137.021 31.3292 137.135 31.7188C137.193 31.9138 137.235 32.0705 137.265 32.1825C137.279 32.2385 137.291 32.2835 137.299 32.3165L137.309 32.3569L137.312 32.3703L137.313 32.3753L137.314 32.3773C137.314 32.3782 137.314 32.379 135.236 32.8597L137.314 32.379C137.581 33.5194 136.868 34.659 135.72 34.9245C134.573 35.1896 133.427 34.4824 133.158 33.3443L133.158 33.3436L133.158 33.3426L133.158 33.3404L133.155 33.33C133.151 33.3148 133.145 33.2883 133.135 33.2512C133.115 33.1769 133.084 33.0603 133.039 32.9075C132.949 32.6014 132.806 32.1529 132.604 31.6098C132.195 30.5167 131.555 29.0763 130.627 27.6522C128.761 24.7906 125.935 22.2598 121.632 22.2598C117.188 22.2598 113.753 24.8869 109.626 28.1571L109.406 28.3314C107.213 30.0704 104.799 31.9846 102.007 33.3106C99.8964 34.3133 97.5694 34.9797 94.9586 34.9797C92.3361 34.9797 90 34.3073 87.8814 33.2971C85.1018 31.9716 82.6967 30.0646 80.5111 28.3314L80.2911 28.1571C76.1647 24.8869 72.7289 22.2598 68.285 22.2598C63.841 22.2598 60.4052 24.8869 56.2788 28.1571L56.0588 28.3314C53.8936 30.0483 51.5131 31.9359 48.7665 33.2597C46.6273 34.2907 44.266 34.9797 41.6113 34.9797C38.9448 34.9797 36.5744 34.2846 34.4277 33.246C31.693 31.9229 29.3215 30.0424 27.1637 28.3314L26.9438 28.1571C22.8173 24.8869 19.3815 22.2598 14.9376 22.2598C10.6682 22.2598 8.05358 24.7528 6.39405 27.5704C5.56361 28.9804 5.01781 30.4095 4.67992 31.4973C4.51218 32.0374 4.39874 32.4834 4.32847 32.7875C4.29339 32.9393 4.26925 33.055 4.25459 33.1285C4.24727 33.1653 4.24233 33.1914 4.2396 33.2062L4.23759 33.2171L4.23738 33.2183Z"
    fill="white" />
  <path
    d="M4.23759 51.2369L4.23749 51.2375C4.03869 52.3906 2.93711 53.1659 1.776 52.9694C0.61421 52.7729 -0.167221 51.6779 0.0306269 50.5236L2.13424 50.8795C0.030627 50.5236 0.0307767 50.5228 0.0309352 50.5219L0.031296 50.5198L0.0321763 50.5147L0.0345807 50.5011L0.0420311 50.4601C0.0481968 50.4267 0.0567997 50.3814 0.0680405 50.325C0.090513 50.2122 0.123584 50.0547 0.168874 49.8587C0.259338 49.4672 0.399227 48.9194 0.601879 48.267C1.00477 46.9698 1.668 45.219 2.71053 43.4489C4.79693 39.9066 8.58398 36.0397 14.9376 36.0397C21.0009 36.0397 25.5336 39.6339 29.3851 42.6879L29.6051 42.8623C33.7315 46.1324 37.1674 48.7596 41.6113 48.7596C46.0552 48.7596 49.491 46.1324 53.6174 42.8623L53.8374 42.6879C57.6889 39.6339 62.2217 36.0397 68.285 36.0397C74.3482 36.0397 78.881 39.6339 82.7325 42.6879L82.9525 42.8623C87.0789 46.1324 90.5147 48.7596 94.9586 48.7596C99.4025 48.7596 102.838 46.1324 106.965 42.8623L107.185 42.6879C111.036 39.6339 115.569 36.0397 121.632 36.0397C127.953 36.0397 131.928 39.8688 134.209 43.3672C135.353 45.1231 136.122 46.8627 136.605 48.1545C136.847 48.8039 137.021 49.3491 137.135 49.7387C137.193 49.9337 137.235 50.0904 137.265 50.2024C137.279 50.2584 137.291 50.3033 137.299 50.3363L137.309 50.3768L137.312 50.3902L137.313 50.3951L137.314 50.3971C137.314 50.398 137.314 50.3989 135.236 50.8795L137.314 50.3989C137.581 51.5392 136.868 52.6788 135.72 52.9443C134.573 53.2095 133.427 52.5022 133.158 51.3642L133.158 51.3634L133.158 51.3625L133.158 51.3602L133.155 51.3498C133.153 51.343 133.151 51.3338 133.148 51.3224C133.145 51.3085 133.14 51.2914 133.135 51.271C133.115 51.1967 133.084 51.0801 133.039 50.9273C132.949 50.6213 132.806 50.1727 132.604 49.6296C132.195 48.5365 131.555 47.0961 130.627 45.672C128.761 42.8105 125.935 40.2796 121.632 40.2796C117.188 40.2796 113.753 42.9068 109.626 46.1769L109.406 46.3513C107.213 48.0903 104.799 50.0044 102.007 51.3304C99.8964 52.3331 97.5694 52.9995 94.9586 52.9995C92.3361 52.9995 90 52.3272 87.8814 51.3169C85.1018 49.9915 82.6967 48.0844 80.5111 46.3513L80.2911 46.1769C76.1647 42.9068 72.7289 40.2796 68.285 40.2796C63.841 40.2796 60.4052 42.9068 56.2788 46.1769L56.0588 46.3513C53.8936 48.0682 51.5131 49.9558 48.7665 51.2795C46.6273 52.3105 44.266 52.9995 41.6113 52.9995C38.9448 52.9995 36.5744 52.3044 34.4277 51.2658C31.693 49.9427 29.3215 48.0623 27.1638 46.3513L26.9438 46.1769C22.8173 42.9068 19.3815 40.2796 14.9376 40.2796C10.6682 40.2796 8.05358 42.7727 6.39405 45.5903C5.56361 47.0002 5.01781 48.4293 4.67992 49.5172C4.51218 50.0572 4.39874 50.5032 4.32847 50.8073C4.29339 50.9591 4.26925 51.0748 4.25459 51.1484C4.24727 51.1851 4.24233 51.2113 4.2396 51.226L4.23759 51.2369Z"
    fill="white" />
</svg>